<?xml version="1.0" encoding="utf-8"?>
<!-- Generator: Adobe Illustrator 16.0.0, SVG Export Plug-In . SVG Version: 6.00 Build 0)  -->
<!DOCTYPE svg PUBLIC "-//W3C//DTD SVG 1.1//EN" "http://www.w3.org/Graphics/SVG/1.1/DTD/svg11.dtd">
<svg version="1.1" id="Layer_1" xmlns="http://www.w3.org/2000/svg" xmlns:xlink="http://www.w3.org/1999/xlink" x="0px" y="0px"
	 width="647px" height="151px" viewBox="105.5 176.5 647 151" enable-background="new 105.5 176.5 647 151" xml:space="preserve">
<path d="M112.024,181.901h66.809c36.293,0,54.437,11.543,54.437,34.225c0,4.125-0.823,8.25-2.06,11.959
	c-1.649,3.715-3.712,7.014-6.188,10.312c-2.886,2.883-5.774,5.361-9.896,7.834c5.361,1.236,9.483,3.715,13.195,7.007
	c3.299,3.309,6.185,7.023,7.837,11.559c1.649,4.535,2.476,9.07,2.06,14.016c0,9.902-2.886,17.73-7.421,23.507
	c-4.538,6.188-11.136,10.312-19.383,13.194c-8.663,2.474-18.97,3.716-31.345,3.716h-68.045V181.901 M157.388,214.063v23.098h18.97
	c4.951,0,8.663-1.236,11.136-3.709c2.476-2.479,3.712-5.367,3.712-8.666c0-4.119-1.236-6.592-3.299-8.244
	c-2.06-1.652-6.598-2.479-13.198-2.479H157.388 M157.388,261.902v25.16h20.622c12.372,0,18.557-3.715,18.557-11.965
	c-0.413-5.355-2.062-9.07-5.361-10.723s-9.896-2.473-19.793-2.473L157.388,261.902 M315.342,289.125h37.939
	c-1.649,8.66-7.424,16.5-16.497,23.097c-9.073,6.598-21.858,10.312-38.353,10.312c-17.32,0-31.345-4.957-41.654-14.438
	c-10.31-9.902-15.671-22.277-15.671-37.945c0-9.07,2.473-17.733,6.598-25.983c4.125-8.244,10.726-14.848,19.383-20.203
	c8.663-4.951,18.973-7.424,30.935-7.424c14.432,0,25.978,3.293,35.051,9.896c8.663,6.188,15.261,14.438,18.973,23.918
	c3.299,9.483,5.361,18.976,4.948,28.046h-76.298c0,6.188,2.065,10.723,6.188,14.027c4.125,3.703,8.663,5.355,13.608,5.765
	C307.505,298.193,312.453,294.902,315.342,289.125 M280.695,257.777h36.706c-0.41-4.942-2.476-9.073-6.185-12.366
	c-3.302-2.889-7.424-4.535-11.962-4.535c-5.771,0-10.307,1.236-13.608,4.535C282.348,248.299,280.695,252.418,280.695,257.777
	 M362.768,219.43v99.798h39.592v-51.14c0-7.418,1.235-12.785,3.709-15.671c2.476-3.299,6.601-4.535,11.549-4.535
	c9.482-0.416,14.023,5.772,14.023,18.144v53.204h39.587v-60.21c0-15.261-3.3-25.983-10.724-32.581
	c-7.008-6.604-16.494-9.896-28.043-9.896c-13.607,0-25.157,6.188-33.813,18.557v-15.67H362.768L362.768,219.43z M547.112,257.777
	h40.002c-0.82-13.192-6.188-23.505-16.078-30.513c-9.902-7.014-22.271-10.723-37.945-10.723c-9.896,0-18.973,1.236-25.979,4.535
	c-7.424,2.889-13.605,6.598-18.146,11.959c-4.535,5.361-7.834,11.133-9.896,17.32c-2.474,6.19-3.306,13.198-3.716,20.628
	c0,14.426,4.951,26.391,14.849,36.281c9.901,10.312,23.918,14.849,42.479,14.849c15.668,0,28.453-3.293,38.355-10.302
	c9.891-7.02,15.668-17.332,17.32-30.937h-40.418c-1.236,9.48-6.188,14.438-14.849,14.848c-6.188,0-10.723-2.473-13.611-7.008
	c-2.889-4.957-4.534-11.145-4.534-18.973c0.416-9.07,1.646-15.672,4.534-20.212c2.89-4.119,7.425-6.598,13.201-6.598
	c4.125,0,7.418,1.652,10.308,4.125C545.466,249.53,546.702,252.834,547.112,257.777L547.112,257.777z M592.892,181.901v137.33
	h39.177v-51.55c0-13.199,5.367-19.796,15.258-19.796c9.492,0,14.438,6.597,14.438,19.386v51.96h39.593v-61.042
	c0-12.776-2.89-22.679-9.486-30.513c-6.188-7.424-16.084-11.133-29.279-11.133c-11.959,0-21.86,4.945-30.521,15.258v-49.898
	L592.892,181.901L592.892,181.901z M747.343,319.229v-39.438h-39.438v39.438H747.343L747.343,319.229z"/>
</svg>
