<svg xmlns="http://www.w3.org/2000/svg" width="647" height="151" viewBox="105.5 176.5 647 151"><path d="M112 181.9h66.8c36.3 0 54.4 11.5 54.4 34.2 0 4.1-0.8 8.3-2.1 12 -1.6 3.7-3.7 7-6.2 10.3 -2.9 2.9-5.8 5.4-9.9 7.8 5.4 1.2 9.5 3.7 13.2 7 3.3 3.3 6.2 7 7.8 11.6 1.6 4.5 2.5 9.1 2.1 14 0 9.9-2.9 17.7-7.4 23.5 -4.5 6.2-11.1 10.3-19.4 13.2 -8.7 2.5-19 3.7-31.3 3.7h-68V181.9M157.4 214.1v23.1h19c5 0 8.7-1.2 11.1-3.7 2.5-2.5 3.7-5.4 3.7-8.7 0-4.1-1.2-6.6-3.3-8.2 -2.1-1.7-6.6-2.5-13.2-2.5H157.4M157.4 261.9v25.2h20.6c12.4 0 18.6-3.7 18.6-12 -0.4-5.4-2.1-9.1-5.4-10.7s-9.9-2.5-19.8-2.5L157.4 261.9M315.3 289.1h37.9c-1.6 8.7-7.4 16.5-16.5 23.1 -9.1 6.6-21.9 10.3-38.4 10.3 -17.3 0-31.3-5-41.7-14.4 -10.3-9.9-15.7-22.3-15.7-37.9 0-9.1 2.5-17.7 6.6-26 4.1-8.2 10.7-14.8 19.4-20.2 8.7-5 19-7.4 30.9-7.4 14.4 0 26 3.3 35.1 9.9 8.7 6.2 15.3 14.4 19 23.9 3.3 9.5 5.4 19 4.9 28h-76.3c0 6.2 2.1 10.7 6.2 14 4.1 3.7 8.7 5.4 13.6 5.8C307.5 298.2 312.5 294.9 315.3 289.1M280.7 257.8h36.7c-0.4-4.9-2.5-9.1-6.2-12.4 -3.3-2.9-7.4-4.5-12-4.5 -5.8 0-10.3 1.2-13.6 4.5C282.3 248.3 280.7 252.4 280.7 257.8M362.8 219.4v99.8h39.6v-51.1c0-7.4 1.2-12.8 3.7-15.7 2.5-3.3 6.6-4.5 11.5-4.5 9.5-0.4 14 5.8 14 18.1v53.2h39.6v-60.2c0-15.3-3.3-26-10.7-32.6 -7-6.6-16.5-9.9-28-9.9 -13.6 0-25.2 6.2-33.8 18.6v-15.7H362.8L362.8 219.4zM547.1 257.8h40c-0.8-13.2-6.2-23.5-16.1-30.5 -9.9-7-22.3-10.7-37.9-10.7 -9.9 0-19 1.2-26 4.5 -7.4 2.9-13.6 6.6-18.1 12 -4.5 5.4-7.8 11.1-9.9 17.3 -2.5 6.2-3.3 13.2-3.7 20.6 0 14.4 5 26.4 14.8 36.3 9.9 10.3 23.9 14.8 42.5 14.8 15.7 0 28.5-3.3 38.4-10.3 9.9-7 15.7-17.3 17.3-30.9h-40.4c-1.2 9.5-6.2 14.4-14.8 14.8 -6.2 0-10.7-2.5-13.6-7 -2.9-5-4.5-11.1-4.5-19 0.4-9.1 1.6-15.7 4.5-20.2 2.9-4.1 7.4-6.6 13.2-6.6 4.1 0 7.4 1.7 10.3 4.1C545.5 249.5 546.7 252.8 547.1 257.8L547.1 257.8zM592.9 181.9v137.3h39.2v-51.5c0-13.2 5.4-19.8 15.3-19.8 9.5 0 14.4 6.6 14.4 19.4v52h39.6v-61c0-12.8-2.9-22.7-9.5-30.5 -6.2-7.4-16.1-11.1-29.3-11.1 -12 0-21.9 4.9-30.5 15.3v-49.9L592.9 181.9 592.9 181.9zM747.3 319.2v-39.4h-39.4v39.4H747.3L747.3 319.2z"/></svg>