<svg xmlns="http://www.w3.org/2000/svg" width="450" height="66" viewBox="40 37.8 449.5 66"><path d="M129.1 82.3h7.7c0 1 0.1 3.6 0.9 5.7 2.5 6.6 7.4 8.6 15.8 8.6 7.5 0 16.1-2.9 16.1-10.8 0-7.8-6.8-9.7-13.5-10.4l0-7.1c10.5 1 20.6 5.2 20.6 17.6 0 11.9-10.8 17.9-23.2 17.9 -11.8 0-20.1-4.1-23.4-14.3C129.3 86.8 129.1 83.7 129.1 82.3M173.7 53.3c-3-8-11.5-12.2-21.5-12.2 -9.7 0-22.3 4.3-22.3 16.9 0 12.6 10 16.6 20.1 16.9V67.8c-6.3-0.6-12.5-2.6-12.5-9.7 0-7.8 7.7-10.1 14.6-10.1 7.1 0 12.7 2.6 14.6 8.2 0.4 1.2 0.6 2.6 0.7 3.3 0 0 7.7 0 7.7 0C175 58.6 174.7 56 173.7 53.3M353.9 102.1l-13.8-22h-8.3l13.8 22H353.9zM318.3 42.6v7c0 0 11.8 0 16.4 0.1 5.4 0.1 9.3 4.1 9.3 9.1 0 5.1-4.6 9.1-9.3 9.2 -4.9 0.1-16.5 0.1-16.5 0.1l0 7h16.4c8.9 0.2 16.4-7.3 16.4-16.3 0-9-7-16.4-16.3-16.2H318.3zM304.9 102.1h7.1V42.5h-7.1V102.1zM233.1 42.6v7c0 0 9.2 0 13.9 0.1 5.4 0.1 9.3 4.1 9.3 9.1 0 5.1-4.6 9.1-9.3 9.2 -4.9 0.1-13.9 0.1-13.9 0.1l0 7.1h13.8c8.9 0.2 16.4-7.2 16.4-16.3 0-9-7-16.4-16.3-16.2L233.1 42.6 233.1 42.6zM219.8 102.1h7.1l0-59.5h-7.1L219.8 102.1zM462.8 102.1h7.1V55.9h-7.1V102.1zM487.6 42.5h-42.5v7.1h42.5V42.5zM394.7 102.1h7.1V42.5h-7.1V102.1zM42.5 49.6h42.5v-7.1h-42.5V49.6zM42.5 102.1h42.5v-7h-42.5V102.1zM42.5 75.9h42.5v-7.1h-42.5V75.9z" /></svg>
