<?xml version="1.0" encoding="utf-8"?>
<!-- Generator: Adobe Illustrator 16.0.0, SVG Export Plug-In . SVG Version: 6.00 Build 0)  -->
<!DOCTYPE svg PUBLIC "-//W3C//DTD SVG 1.1//EN" "http://www.w3.org/Graphics/SVG/1.1/DTD/svg11.dtd">
<svg version="1.1" id="Ebene_1" xmlns="http://www.w3.org/2000/svg" xmlns:xlink="http://www.w3.org/1999/xlink" x="0px" y="0px"
	 width="449.5px" height="66.019px" viewBox="40.04 37.783 449.5 66.019" enable-background="new 40.04 37.783 449.5 66.019"
	 xml:space="preserve">
<path fill="#C4122F" d="M129.117,82.257h7.723c0,0.963,0.087,3.609,0.9,5.715c2.508,6.553,7.396,8.609,15.785,8.609
	c7.546,0,16.081-2.945,16.081-10.756c0-7.791-6.765-9.742-13.527-10.433l0.034-7.062c10.514,0.957,20.641,5.227,20.641,17.577
	c0,11.866-10.757,17.895-23.241,17.895c-11.759,0-20.055-4.104-23.364-14.254C129.262,86.819,129.117,83.675,129.117,82.257
	 M173.703,53.343c-3.006-8.034-11.453-12.247-21.549-12.247c-9.725,0-22.317,4.271-22.317,16.938
	c0,12.617,9.971,16.555,20.087,16.861V67.83c-6.267-0.555-12.527-2.583-12.527-9.714c0-7.789,7.682-10.111,14.578-10.111
	c7.12,0,12.735,2.593,14.643,8.213c0.409,1.22,0.631,2.634,0.677,3.286c-0.005-0.005,7.661-0.03,7.661-0.03
	C174.955,58.606,174.7,56.021,173.703,53.343 M353.905,102.091l-13.771-22.037h-8.317l13.771,22.037H353.905z M318.278,42.55v7.049
	c0,0,11.768,0.012,16.449,0.08c5.415,0.09,9.27,4.085,9.27,9.094c0,5.092-4.593,9.095-9.262,9.165
	c-4.857,0.069-16.465,0.065-16.465,0.065l0.008,7.045h16.411c8.882,0.189,16.372-7.252,16.372-16.257
	c0-8.979-6.979-16.404-16.334-16.241H318.278z M304.947,102.09h7.087V42.547h-7.087V102.09z M233.149,42.55v7.047
	c0,0,9.238,0.011,13.872,0.085c5.418,0.082,9.271,4.076,9.271,9.088c0,5.092-4.592,9.096-9.267,9.166
	c-4.856,0.071-13.878,0.059-13.878,0.059l0.001,7.052h13.834c8.884,0.194,16.383-7.248,16.383-16.256
	c0-8.979-6.986-16.405-16.345-16.239L233.149,42.55L233.149,42.55z M219.826,102.091h7.069l0.017-59.543h-7.081L219.826,102.091z
	 M462.756,102.087h7.088V55.866h-7.088V102.087z M487.559,42.544h-42.52v7.086h42.52V42.544z M394.659,102.091h7.086V42.548h-7.086
	V102.091z M42.521,49.633h42.52v-7.086h-42.52V49.633z M42.521,102.091h42.52v-7.049h-42.52V102.091z M42.521,75.861h42.52v-7.065
	h-42.52V75.861z"/>
</svg>
